 <svg width="296" height="48" viewBox="0 0 296 48" fill="none" xmlns="http://www.w3.org/2000/svg">
          <path d="M55.4297 38.2148C54.2318 38.2148 52.9102 38.0651 51.4648 37.7656C50.0195 37.4531 49.0039 37.1276 48.418 36.7891C47.832 36.4375 47.3698 35.9492 47.0312 35.3242C46.7057 34.6862 46.543 34.0807 46.543 33.5078C46.543 32.9219 46.6797 32.4727 46.9531 32.1602C47.2266 31.8346 47.526 31.6719 47.8516 31.6719C48.1771 31.6719 48.7826 32.043 49.668 32.7852C50.5664 33.5273 51.4583 34.0872 52.3438 34.4648C53.2422 34.8424 54.3555 35.0312 55.6836 35.0312C57.0117 35.0312 58.0924 34.6797 58.9258 33.9766C59.7591 33.2734 60.1758 32.2773 60.1758 30.9883C60.1758 29.6992 59.4206 28.5339 57.9102 27.4922C57.4935 27.2057 56.1133 26.5091 53.7695 25.4023C51.4258 24.2826 49.8763 23.332 49.1211 22.5508C48.3659 21.7565 47.819 20.9557 47.4805 20.1484C47.1549 19.3281 46.9922 18.3516 46.9922 17.2188C46.9922 15.1615 47.8581 13.4557 49.5898 12.1016C51.1393 10.8646 53.4635 10.2461 56.5625 10.2461C58.4635 10.2461 60.0586 10.526 61.3477 11.0859C61.9336 11.3464 62.4219 11.7891 62.8125 12.4141C63.2161 13.026 63.418 13.599 63.418 14.1328C63.418 15.3828 63.0078 16.0078 62.1875 16.0078C61.9531 16.0078 61.1523 15.5586 59.7852 14.6602C58.418 13.7617 57.0443 13.3125 55.6641 13.3125C54.2969 13.3125 53.1901 13.638 52.3438 14.2891C51.5104 14.9271 51.0938 15.8125 51.0938 16.9453C51.0938 18.0781 51.6471 19.0872 52.7539 19.9727C53.3529 20.4544 54.8698 21.2487 57.3047 22.3555C59.7396 23.4492 61.3997 24.4453 62.2852 25.3438C63.1836 26.2292 63.776 27.082 64.0625 27.9023C64.362 28.7096 64.5117 29.6471 64.5117 30.7148C64.5117 31.7826 64.2839 32.7852 63.8281 33.7227C62.9167 35.6367 61.2956 36.9583 58.9648 37.6875C57.8581 38.0391 56.7253 38.2148 55.5664 38.2148C55.5143 38.2148 55.4688 38.2148 55.4297 38.2148ZM75.0586 35.5391H75.6641C76.875 35.5391 77.9427 35.0182 78.8672 33.9766C79.375 33.4036 79.6289 32.3359 79.6289 30.7734L79.6484 30.5195V30.0312C79.6484 29.0547 79.2448 28.5664 78.4375 28.5664H77.8125L76.7969 28.6445L76.2695 28.7031C75.0716 28.7031 74.0885 29.0417 73.3203 29.7188C72.5521 30.3828 72.168 31.1771 72.168 32.1016V32.7852C72.168 33.4883 72.4154 34.1263 72.9102 34.6992C73.418 35.2591 74.1341 35.5391 75.0586 35.5391ZM84.9414 36.4766C84.9414 37.349 84.0625 37.7852 82.3047 37.7852C81.9922 37.7852 81.4193 37.6289 80.5859 37.3164C79.7656 36.9909 79.2448 36.8281 79.0234 36.8281C78.8151 36.8281 78.112 37.056 76.9141 37.5117C75.7161 37.9544 74.6615 38.1758 73.75 38.1758H73.3008C71.8815 38.1758 70.6576 37.7135 69.6289 36.7891C68.6003 35.8516 68.0859 34.5755 68.0859 32.9609C68.0859 29.6797 70.1628 27.6354 74.3164 26.8281C77.0117 26.2943 78.4049 26.0078 78.4961 25.9688C79.1341 25.6432 79.4531 25.0573 79.4531 24.2109C79.4531 23.3516 79.1797 22.6354 78.6328 22.0625C78.099 21.4766 77.3633 21.1836 76.4258 21.1836C75.5013 21.1836 74.4076 21.5026 73.1445 22.1406C71.8815 22.7656 71.0156 23.0781 70.5469 23.0781C69.7005 23.0781 69.2773 22.4987 69.2773 21.3398C69.2773 20.6107 69.9414 19.9206 71.2695 19.2695C72.6107 18.6185 74.1341 18.293 75.8398 18.293H76.8164C78.0924 18.293 79.2253 18.5339 80.2148 19.0156C81.2044 19.4974 81.9596 20.1484 82.4805 20.9688C83.2227 22.1276 83.5938 24.7773 83.5938 28.918C83.5938 31.2617 83.6393 32.7201 83.7305 33.293C83.8346 33.8659 84.0625 34.4453 84.4141 35.0312C84.7656 35.6042 84.9414 36.0859 84.9414 36.4766ZM96.8555 37.9219H96.1133C94.2383 37.9219 92.8906 37.1146 92.0703 35.5C91.3932 34.1849 91.0547 32.0234 91.0547 29.0156C91.0547 26.0078 90.8919 23.944 90.5664 22.8242C90.4492 22.4076 90.1237 21.9323 89.5898 21.3984C89.056 20.8646 88.7891 20.4023 88.7891 20.0117V19.7578C88.7891 19.4193 89.0951 19.0482 89.707 18.6445C90.319 18.2409 90.6706 17.9544 90.7617 17.7852C90.8659 17.6029 91.0612 16.9714 91.3477 15.8906C91.6471 14.7969 91.9531 14.0352 92.2656 13.6055C92.5911 13.1628 93.0208 12.9414 93.5547 12.9414C94.1016 12.9414 94.4857 13.0977 94.707 13.4102C94.9414 13.7227 95.1693 14.3672 95.3906 15.3438C95.625 16.3203 95.8789 16.9844 96.1523 17.3359C96.4258 17.6745 97.0898 18.0326 98.1445 18.4102C99.1992 18.7878 99.7266 19.2565 99.7266 19.8164C99.7266 20.3112 99.1732 20.7539 98.0664 21.1445C96.9727 21.5352 96.2826 22.0169 95.9961 22.5898C95.4492 23.6966 95.1758 25.6562 95.1758 28.4688C95.1758 31.2812 95.4167 33.0065 95.8984 33.6445C96.3802 34.2695 97.1615 34.6536 98.2422 34.7969C99.3359 34.9401 99.8828 35.3503 99.8828 36.0273C99.8828 36.5482 99.5703 36.9974 98.9453 37.375C98.3333 37.7396 97.6367 37.9219 96.8555 37.9219ZM107.246 10.5586H107.891C108.451 10.5586 108.932 10.7279 109.336 11.0664C109.74 11.4049 109.941 11.8997 109.941 12.5508V13.0391C109.941 13.5729 109.766 14.0547 109.414 14.4844C109.062 14.901 108.613 15.1094 108.066 15.1094L107.676 15.168H107.031C106.875 15.1289 106.68 15.1094 106.445 15.1094C106.211 15.1094 105.931 14.9531 105.605 14.6406C105.293 14.3151 105.137 13.957 105.137 13.5664C105.111 13.4622 105.098 13.3841 105.098 13.332L105.059 12.9414V12.8438L105.137 12.2188C105.137 11.9193 105.306 11.5677 105.645 11.1641C105.983 10.7604 106.517 10.5586 107.246 10.5586ZM107.559 37.9414H106.562C106.016 37.9414 105.547 37.7852 105.156 37.4727C104.766 37.1602 104.57 36.8216 104.57 36.457C104.57 36.0794 104.681 35.5391 104.902 34.8359C105.124 34.1328 105.234 33.5078 105.234 32.9609L105.273 32.4727L105.312 31.457V30.6562L105.332 30.1289V23.7812C105.28 23.0781 105.169 22.4857 105 22.0039L104.824 21.6328C104.551 20.9557 104.414 20.5846 104.414 20.5195V20.1289C104.414 19.3737 105.195 18.9961 106.758 18.9961H107.461C108.411 18.9961 108.991 19.3672 109.199 20.1094C109.251 20.3047 109.277 21.444 109.277 23.5273V27.9609L109.316 29.25L109.395 30.7539C109.395 32.3034 109.714 33.6185 110.352 34.6992C110.612 35.1419 110.742 35.6367 110.742 36.1836C110.742 36.7174 110.436 37.1471 109.824 37.4727C109.212 37.7852 108.457 37.9414 107.559 37.9414ZM117.012 27.375C115.892 26.3854 115.332 25.1094 115.332 23.5469C115.332 21.9714 116.003 20.6888 117.344 19.6992C118.685 18.6966 120.391 18.1953 122.461 18.1953C124.531 18.1953 126.042 18.4492 126.992 18.957C127.943 19.4518 128.418 20.1029 128.418 20.9102C128.418 22.0169 128.06 22.5703 127.344 22.5703C127.096 22.5703 126.439 22.3034 125.371 21.7695C124.303 21.2357 123.268 20.9688 122.266 20.9688C121.263 20.9688 120.508 21.1966 120 21.6523C119.505 22.1081 119.258 22.694 119.258 23.4102C119.258 24.1263 119.74 24.7643 120.703 25.3242C121.029 25.5195 122.083 25.9753 123.867 26.6914C125.664 27.3945 126.927 28.0651 127.656 28.7031C128.789 29.7057 129.355 31.0078 129.355 32.6094C129.355 34.2109 128.685 35.5586 127.344 36.6523C126.016 37.7331 124.297 38.2734 122.188 38.2734C118.607 38.2734 116.387 37.5768 115.527 36.1836C115.254 35.7409 115.117 35.3503 115.117 35.0117C115.117 33.8789 115.469 33.3125 116.172 33.3125C116.38 33.3125 117.142 33.6641 118.457 34.3672C119.785 35.0573 120.964 35.4023 121.992 35.4023C123.034 35.4023 123.854 35.181 124.453 34.7383C125.052 34.2956 125.352 33.6966 125.352 32.9414C125.352 32.1732 124.876 31.4701 123.926 30.832C123.535 30.5716 122.461 30.0898 120.703 29.3867C118.945 28.6706 117.715 28 117.012 27.375ZM142.461 12.5312C141.628 12.5312 140.957 12.8372 140.449 13.4492C139.941 14.0612 139.688 14.8424 139.688 15.793C139.688 16.7435 139.831 17.3945 140.117 17.7461C140.404 18.0977 141.061 18.5404 142.09 19.0742C143.132 19.6081 143.652 20.1159 143.652 20.5977C143.652 20.9753 143.125 21.418 142.07 21.9258C141.302 22.2904 140.742 22.9805 140.391 23.9961C139.792 25.7018 139.492 28.1823 139.492 31.4375C139.492 32.3359 139.629 33.306 139.902 34.3477C140.189 35.3893 140.332 36.0404 140.332 36.3008C140.332 36.9258 140.052 37.4531 139.492 37.8828C138.932 38.3125 138.21 38.5273 137.324 38.5273C136.452 38.5273 135.736 38.2995 135.176 37.8438C134.616 37.388 134.336 36.7695 134.336 35.9883C134.336 35.806 134.447 35.3503 134.668 34.6211C134.902 33.8919 135.059 33.306 135.137 32.8633C135.215 32.4206 135.254 31.4701 135.254 30.0117L135.215 29.0938L135.195 28.1367C135.195 25.8451 135.104 24.3151 134.922 23.5469C134.753 22.7656 134.447 22.1276 134.004 21.6328C133.574 21.138 133.359 20.7018 133.359 20.3242C133.359 20.2201 133.854 19.3542 134.844 17.7266C135.039 17.401 135.365 16.5156 135.82 15.0703C136.276 13.612 136.803 12.4987 137.402 11.7305C138.001 10.9492 138.75 10.3503 139.648 9.93359C140.547 9.51693 141.419 9.30859 142.266 9.30859H143.242C144.206 9.30859 144.961 9.51042 145.508 9.91406C146.055 10.3177 146.328 10.6628 146.328 10.9492V11.2812C146.328 12.2057 145.749 12.668 144.59 12.668C144.395 12.668 144.186 12.6549 143.965 12.6289C143.353 12.5638 142.852 12.5312 142.461 12.5312ZM151.328 29.7969C148.958 24.5625 147.773 21.6328 147.773 21.0078C147.773 20.3828 148.001 19.9401 148.457 19.6797C148.913 19.4193 149.609 19.2891 150.547 19.2891C151.484 19.2891 152.155 19.7513 152.559 20.6758C152.611 20.7799 152.78 21.5612 153.066 23.0195C153.353 24.4779 153.906 26.4245 154.727 28.8594C155.547 31.2943 156.178 32.5117 156.621 32.5117C156.725 32.5117 156.908 32.3424 157.168 32.0039C157.819 31.1445 158.522 29.569 159.277 27.2773C160.046 24.9727 160.488 22.9284 160.605 21.1445C160.658 20.3763 160.749 19.8815 160.879 19.6602C161.23 19.0742 161.836 18.7812 162.695 18.7812H163.203C164.388 18.7812 164.98 19.2435 164.98 20.168C164.98 20.7279 164.746 21.5872 164.277 22.7461C163.822 23.9049 163.477 24.8685 163.242 25.6367C161.094 32.8503 159.525 37.4596 158.535 39.4648C157.546 41.4831 156.458 43.0456 155.273 44.1523C154.102 45.2721 152.904 45.832 151.68 45.832C150.456 45.832 149.844 45.4414 149.844 44.6602C149.844 44.1133 150.404 43.6185 151.523 43.1758C152.656 42.7331 153.457 42.2383 153.926 41.6914C154.837 40.6367 155.293 39.4388 155.293 38.0977C155.293 37.3555 154.772 36.099 153.73 34.3281C152.689 32.5443 151.888 31.0339 151.328 29.7969ZM171.934 10.5586H172.578C173.138 10.5586 173.62 10.7279 174.023 11.0664C174.427 11.4049 174.629 11.8997 174.629 12.5508V13.0391C174.629 13.5729 174.453 14.0547 174.102 14.4844C173.75 14.901 173.301 15.1094 172.754 15.1094L172.363 15.168H171.719C171.562 15.1289 171.367 15.1094 171.133 15.1094C170.898 15.1094 170.618 14.9531 170.293 14.6406C169.98 14.3151 169.824 13.957 169.824 13.5664C169.798 13.4622 169.785 13.3841 169.785 13.332L169.746 12.9414V12.8438L169.824 12.2188C169.824 11.9193 169.993 11.5677 170.332 11.1641C170.671 10.7604 171.204 10.5586 171.934 10.5586ZM172.246 37.9414H171.25C170.703 37.9414 170.234 37.7852 169.844 37.4727C169.453 37.1602 169.258 36.8216 169.258 36.457C169.258 36.0794 169.368 35.5391 169.59 34.8359C169.811 34.1328 169.922 33.5078 169.922 32.9609L169.961 32.4727L170 31.457V30.6562L170.02 30.1289V23.7812C169.967 23.0781 169.857 22.4857 169.688 22.0039L169.512 21.6328C169.238 20.9557 169.102 20.5846 169.102 20.5195V20.1289C169.102 19.3737 169.883 18.9961 171.445 18.9961H172.148C173.099 18.9961 173.678 19.3672 173.887 20.1094C173.939 20.3047 173.965 21.444 173.965 23.5273V27.9609L174.004 29.25L174.082 30.7539C174.082 32.3034 174.401 33.6185 175.039 34.6992C175.299 35.1419 175.43 35.6367 175.43 36.1836C175.43 36.7174 175.124 37.1471 174.512 37.4727C173.9 37.7852 173.145 37.9414 172.246 37.9414ZM182.344 37.4336C182.331 37.4336 182.311 37.4336 182.285 37.4336C180.788 37.4336 180.039 36.9193 180.039 35.8906C180.039 35.3958 180.169 34.7839 180.43 34.0547C180.69 33.3255 180.84 32.5898 180.879 31.8477C180.918 31.0924 180.938 29.9401 180.938 28.3906V24.7383L180.977 23.7227C181.003 23.0456 181.016 22.5638 181.016 22.2773L180.82 20.2656C180.82 19.8099 181.224 19.582 182.031 19.582C182.852 19.582 183.691 19.8034 184.551 20.2461C185.41 20.6888 185.938 20.9102 186.133 20.9102C186.341 20.9102 186.725 20.7799 187.285 20.5195C187.858 20.2591 188.529 19.9792 189.297 19.6797C190.078 19.3672 190.879 19.2109 191.699 19.2109H192.207C193.184 19.2109 194.049 19.4779 194.805 20.0117C195.573 20.5326 196.126 21.2617 196.465 22.1992C196.816 23.1237 197.064 24.8294 197.207 27.3164L197.266 28.3906L197.305 29.4648C197.344 30.0898 197.389 30.7669 197.441 31.4961C197.493 32.2253 197.669 32.9935 197.969 33.8008C198.268 34.5951 198.418 35.1289 198.418 35.4023C198.418 36.5612 197.533 37.1406 195.762 37.1406C195.007 37.1406 194.453 36.9909 194.102 36.6914C193.75 36.3789 193.574 35.8581 193.574 35.1289L193.613 34.4062C193.613 29.3411 193.249 25.8906 192.52 24.0547C191.947 22.6354 190.938 21.9258 189.492 21.9258C188.802 21.9258 188.125 22.1016 187.461 22.4531C186.81 22.7917 186.302 23.3451 185.938 24.1133C185.286 25.4805 184.961 28.1107 184.961 32.0039L185.117 35.5391C185.117 36.099 184.85 36.5547 184.316 36.9062C183.783 37.2578 183.125 37.4336 182.344 37.4336ZM206.211 28.2344V29.0547C206.211 30.9036 206.536 32.375 207.188 33.4688C207.852 34.5625 208.757 35.1094 209.902 35.1094H210.586C212.018 35.1094 213.092 34.5169 213.809 33.332C214.342 32.4466 214.609 31.125 214.609 29.3672C214.635 29.1068 214.648 28.9049 214.648 28.7617L214.688 27.7461V26.7305L214.668 26.5352L214.648 25.9492L214.609 25.1875C214.609 24.1068 214.336 23.2669 213.789 22.668C213.242 22.069 212.533 21.7695 211.66 21.7695H211.152C209.694 21.7695 208.503 22.3555 207.578 23.5273C206.667 24.6862 206.211 26.2552 206.211 28.2344ZM213.496 46.2617C212.415 46.6523 211.178 46.8477 209.785 46.8477C208.405 46.8477 207.155 46.5938 206.035 46.0859C204.915 45.5781 204.355 45.0052 204.355 44.3672C204.355 43.5469 204.974 43.1367 206.211 43.1367C206.628 43.1367 207.181 43.1953 207.871 43.3125C208.574 43.4427 209.173 43.5078 209.668 43.5078C211.27 43.5078 212.559 43.0586 213.535 42.1602C214.512 41.2747 215 40.0312 215 38.4297C215 37.7786 214.72 37.4531 214.16 37.4531C214.069 37.4531 213.75 37.4922 213.203 37.5703C212.656 37.6484 211.875 37.6875 210.859 37.6875C207.292 37.6875 204.876 35.9492 203.613 32.4727C203.118 31.1055 202.871 29.7383 202.871 28.3711V27.8438C202.871 26.4245 203.105 25.1354 203.574 23.9766C204.902 20.6823 207.383 19.0352 211.016 19.0352C211.914 19.0352 212.865 19.2109 213.867 19.5625C214.87 19.9141 215.658 20.0898 216.23 20.0898L216.816 20.0508C217.402 20.0508 217.884 20.2852 218.262 20.7539C218.652 21.2096 218.848 21.8737 218.848 22.7461V23.7422C218.848 23.9896 218.75 25.4349 218.555 28.0781C218.359 30.7083 218.262 32.707 218.262 34.0742L218.457 38.5859C218.457 42.5052 216.803 45.0638 213.496 46.2617ZM227.461 33.2734C227.617 33.3125 227.884 33.332 228.262 33.332C228.652 33.332 228.997 33.5469 229.297 33.9766C229.596 34.3932 229.746 34.901 229.746 35.5V35.9492L229.727 36.0273V36.2031C229.701 36.3073 229.688 36.3919 229.688 36.457C229.688 37.0299 229.479 37.4857 229.062 37.8242C228.659 38.1628 228.073 38.332 227.305 38.332H227.031C225.495 38.332 224.727 37.7266 224.727 36.5156L224.668 36.1055V35.4805C224.668 34.9076 224.818 34.4128 225.117 33.9961C225.417 33.5794 225.853 33.3711 226.426 33.3711C226.608 33.332 226.719 33.3125 226.758 33.3125L227.188 33.2734H227.461ZM237.07 29.7969C234.701 24.5625 233.516 21.6328 233.516 21.0078C233.516 20.3828 233.743 19.9401 234.199 19.6797C234.655 19.4193 235.352 19.2891 236.289 19.2891C237.227 19.2891 237.897 19.7513 238.301 20.6758C238.353 20.7799 238.522 21.5612 238.809 23.0195C239.095 24.4779 239.648 26.4245 240.469 28.8594C241.289 31.2943 241.921 32.5117 242.363 32.5117C242.467 32.5117 242.65 32.3424 242.91 32.0039C243.561 31.1445 244.264 29.569 245.02 27.2773C245.788 24.9727 246.23 22.9284 246.348 21.1445C246.4 20.3763 246.491 19.8815 246.621 19.6602C246.973 19.0742 247.578 18.7812 248.438 18.7812H248.945C250.13 18.7812 250.723 19.2435 250.723 20.168C250.723 20.7279 250.488 21.5872 250.02 22.7461C249.564 23.9049 249.219 24.8685 248.984 25.6367C246.836 32.8503 245.267 37.4596 244.277 39.4648C243.288 41.4831 242.201 43.0456 241.016 44.1523C239.844 45.2721 238.646 45.832 237.422 45.832C236.198 45.832 235.586 45.4414 235.586 44.6602C235.586 44.1133 236.146 43.6185 237.266 43.1758C238.398 42.7331 239.199 42.2383 239.668 41.6914C240.579 40.6367 241.035 39.4388 241.035 38.0977C241.035 37.3555 240.514 36.099 239.473 34.3281C238.431 32.5443 237.63 31.0339 237.07 29.7969ZM262.148 35.7344H262.539C263.854 35.7344 264.935 35.1549 265.781 33.9961C266.628 32.8372 267.051 31.3724 267.051 29.6016L267.09 29.1719L267.109 28.5078V27.6289C267.109 25.6888 266.712 24.0938 265.918 22.8438C265.137 21.5807 264.089 20.9492 262.773 20.9492H262.383C261.094 20.9492 260.007 21.5872 259.121 22.8633C258.249 24.1393 257.812 25.832 257.812 27.9414V29.2695C257.839 29.582 257.852 29.7969 257.852 29.9141C257.852 31.3984 258.262 32.7396 259.082 33.9375C259.902 35.1354 260.924 35.7344 262.148 35.7344ZM271.523 27.9023V28.5469C271.523 29.7057 271.335 30.8971 270.957 32.1211C270.189 34.6081 268.678 36.3919 266.426 37.4727C265.124 38.0977 263.835 38.4102 262.559 38.4102H261.895C260.684 38.4102 259.557 38.1628 258.516 37.668C256.445 36.6784 255.072 35.0378 254.395 32.7461C254.03 31.5352 253.848 30.3047 253.848 29.0547V28.0586C253.848 26.8346 254.036 25.6107 254.414 24.3867C255.156 21.9648 256.628 20.2331 258.828 19.1914C259.961 18.6445 261.12 18.3711 262.305 18.3711H263.281C264.401 18.3711 265.508 18.612 266.602 19.0938C268.789 20.0573 270.26 21.776 271.016 24.25C271.354 25.3438 271.523 26.5612 271.523 27.9023ZM280.098 20.4805C280.267 21.0404 280.352 23.0651 280.352 26.5547C280.352 30.0443 280.482 32.1536 280.742 32.8828C281.289 34.4193 282.266 35.1875 283.672 35.1875C285.391 35.1875 286.634 34.5234 287.402 33.1953C288.171 31.8542 288.555 29.582 288.555 26.3789L288.594 25.3242V24.2891C288.594 23.5859 288.542 22.8698 288.438 22.1406C288.346 21.4115 288.301 21.0078 288.301 20.9297C288.301 20.3177 288.516 19.888 288.945 19.6406C289.375 19.3802 290.007 19.25 290.84 19.25C291.673 19.25 292.207 19.5625 292.441 20.1875C292.598 20.6042 292.676 22.6745 292.676 26.3984C292.676 30.1094 292.878 32.7982 293.281 34.4648C293.464 35.181 293.555 35.5521 293.555 35.5781V35.9492C293.555 36.2878 293.353 36.6003 292.949 36.8867C292.559 37.1732 291.999 37.3164 291.27 37.3164C290.54 37.3164 289.837 37.1602 289.16 36.8477C288.483 36.5221 288.066 36.3594 287.91 36.3594C287.767 36.3594 287.083 36.5938 285.859 37.0625C284.635 37.5312 283.548 37.7656 282.598 37.7656H282.09C281.048 37.7656 280.104 37.5312 279.258 37.0625C278.411 36.5807 277.754 35.8971 277.285 35.0117C276.595 33.6966 276.25 30.9036 276.25 26.6328C276.25 24.1458 276.165 22.6094 275.996 22.0234C275.983 21.9714 275.898 21.737 275.742 21.3203C275.586 20.9036 275.508 20.6107 275.508 20.4414V20.0117C275.508 19.2956 276.185 18.9375 277.539 18.9375H278.008C279.089 18.9375 279.785 19.4518 280.098 20.4805Z" fill="white"/>
          <path d="M26.0833 23.7916C26.7083 23.7916 27.2396 23.5729 27.6771 23.1354C28.1146 22.6979 28.3333 22.1666 28.3333 21.5416C28.3333 20.9166 28.1146 20.3854 27.6771 19.9479C27.2396 19.5104 26.7083 19.2916 26.0833 19.2916C25.4583 19.2916 24.9271 19.5104 24.4896 19.9479C24.0521 20.3854 23.8333 20.9166 23.8333 21.5416C23.8333 22.1666 24.0521 22.6979 24.4896 23.1354C24.9271 23.5729 25.4583 23.7916 26.0833 23.7916ZM13.9166 23.7916C14.5416 23.7916 15.0729 23.5729 15.5104 23.1354C15.9479 22.6979 16.1666 22.1666 16.1666 21.5416C16.1666 20.9166 15.9479 20.3854 15.5104 19.9479C15.0729 19.5104 14.5416 19.2916 13.9166 19.2916C13.2916 19.2916 12.7604 19.5104 12.3229 19.9479C11.8854 20.3854 11.6666 20.9166 11.6666 21.5416C11.6666 22.1666 11.8854 22.6979 12.3229 23.1354C12.7604 23.5729 13.2916 23.7916 13.9166 23.7916ZM20 35.125C21.8333 35.125 23.5208 34.6319 25.0625 33.6458C26.6041 32.6597 27.7222 31.3194 28.4166 29.625H26.25C25.6111 30.7361 24.7361 31.5903 23.625 32.1875C22.5139 32.7847 21.3125 33.0833 20.0208 33.0833C18.7291 33.0833 17.5208 32.7916 16.3958 32.2083C15.2708 31.625 14.4028 30.7639 13.7916 29.625H11.5833C12.3055 31.3194 13.4305 32.6597 14.9583 33.6458C16.4861 34.6319 18.1666 35.125 20 35.125ZM20 42.6666C17.6944 42.6666 15.5278 42.2291 13.5 41.3541C11.4722 40.4792 9.70831 39.2917 8.20831 37.7916C6.70831 36.2916 5.52081 34.5278 4.64581 32.5C3.77081 30.4722 3.33331 28.3055 3.33331 26C3.33331 23.6944 3.77081 21.5278 4.64581 19.5C5.52081 17.4722 6.70831 15.7083 8.20831 14.2083C9.70831 12.7083 11.4722 11.5208 13.5 10.6458C15.5278 9.77081 17.6944 9.33331 20 9.33331C22.3055 9.33331 24.4722 9.77081 26.5 10.6458C28.5278 11.5208 30.2916 12.7083 31.7916 14.2083C33.2917 15.7083 34.4792 17.4722 35.3541 19.5C36.2291 21.5278 36.6666 23.6944 36.6666 26C36.6666 28.3055 36.2291 30.4722 35.3541 32.5C34.4792 34.5278 33.2917 36.2916 31.7916 37.7916C30.2916 39.2917 28.5278 40.4792 26.5 41.3541C24.4722 42.2291 22.3055 42.6666 20 42.6666ZM20 40.1667C23.9548 40.1667 27.3047 38.7943 30.0495 36.0495C32.7943 33.3047 34.1667 29.9548 34.1667 26C34.1667 22.0451 32.7943 18.6953 30.0495 15.9505C27.3047 13.2057 23.9548 11.8333 20 11.8333C16.0451 11.8333 12.6953 13.2057 9.95048 15.9505C7.2057 18.6953 5.83331 22.0451 5.83331 26C5.83331 29.9548 7.2057 33.3047 9.95048 36.0495C12.6953 38.7943 16.0451 40.1667 20 40.1667Z" fill="white"/>
          </svg>